<?xml version="1.0" encoding="UTF-8"?>
<svg width="800" height="600" viewBox="0 0 800 600" fill="none" xmlns="http://www.w3.org/2000/svg">
  <!-- Background Elements -->
  <circle cx="400" cy="300" r="280" fill="#122945" fill-opacity="0.2"/>
  <circle cx="400" cy="300" r="200" fill="#0D6EFD" fill-opacity="0.1"/>
  
  <!-- Main Movie Screen -->
  <rect x="200" y="150" width="400" height="280" rx="10" fill="#2C3034" stroke="#0D6EFD" stroke-width="3"/>
  
  <!-- Screen Content -->
  <rect x="220" y="170" width="360" height="200" rx="5" fill="#0A1929"/>
  
  <!-- Movie thumbnail grid -->
  <rect x="230" y="180" width="80" height="50" rx="3" fill="#0D6EFD" fill-opacity="0.7"/>
  <rect x="320" y="180" width="80" height="50" rx="3" fill="#0D6EFD" fill-opacity="0.5"/>
  <rect x="410" y="180" width="80" height="50" rx="3" fill="#0D6EFD" fill-opacity="0.7"/>
  
  <rect x="230" y="240" width="80" height="50" rx="3" fill="#0D6EFD" fill-opacity="0.5"/>
  <rect x="320" y="240" width="80" height="50" rx="3" fill="#0D6EFD" fill-opacity="0.7"/>
  <rect x="410" y="240" width="80" height="50" rx="3" fill="#0D6EFD" fill-opacity="0.5"/>
  
  <rect x="230" y="300" width="80" height="50" rx="3" fill="#0D6EFD" fill-opacity="0.7"/>
  <rect x="320" y="300" width="80" height="50" rx="3" fill="#0D6EFD" fill-opacity="0.5"/>
  <rect x="410" y="300" width="80" height="50" rx="3" fill="#0D6EFD" fill-opacity="0.7"/>
  
  <!-- Movie screen controls -->
  <rect x="230" y="380" width="340" height="30" rx="15" fill="#343A40"/>
  <circle cx="250" cy="395" r="10" fill="#0D6EFD"/>
  <rect x="270" y="390" width="280" height="10" rx="5" fill="#495057"/>
  
  <!-- Floating Elements -->
  <!-- Search icon -->
  <circle cx="150" cy="180" r="40" fill="#0D6EFD" fill-opacity="0.2"/>
  <path d="M162 192L172 202" stroke="#0D6EFD" stroke-width="4" stroke-linecap="round"/>
  <circle cx="150" cy="180" r="15" stroke="#0D6EFD" stroke-width="4" fill="none"/>
  
  <!-- Download icon -->
  <circle cx="650" cy="220" r="40" fill="#0D6EFD" fill-opacity="0.2"/>
  <path d="M650 200V230" stroke="#0D6EFD" stroke-width="4" stroke-linecap="round"/>
  <path d="M635 215L650 230L665 215" stroke="#0D6EFD" stroke-width="4" stroke-linecap="round" stroke-linejoin="round"/>
  <path d="M635 240H665" stroke="#0D6EFD" stroke-width="4" stroke-linecap="round"/>
  
  <!-- Play icon -->
  <circle cx="150" cy="400" r="40" fill="#0D6EFD" fill-opacity="0.2"/>
  <path d="M145 385L165 400L145 415" fill="#0D6EFD"/>
  
  <!-- Telegram icon -->
  <circle cx="650" cy="400" r="40" fill="#0D6EFD" fill-opacity="0.2"/>
  <path d="M670 390L645 405L650 420L655 410L670 390Z" fill="#0D6EFD"/>
  <path d="M670 390L645 405L650 420L655 410L670 390Z" stroke="#0D6EFD" stroke-width="2"/>
  <path d="M645 405L655 410" stroke="#0D6EFD" stroke-width="2"/>
  <path d="M655 410L665 395" stroke="#0D6EFD" stroke-width="2"/>
  
  <!-- Decorative elements -->
  <circle cx="500" cy="100" r="15" fill="#0D6EFD" fill-opacity="0.5"/>
  <circle cx="200" cy="480" r="15" fill="#0D6EFD" fill-opacity="0.5"/>
  <circle cx="600" cy="480" r="15" fill="#0D6EFD" fill-opacity="0.5"/>
  
  <!-- Abstract connection lines -->
  <path d="M500 100L600 480" stroke="#0D6EFD" stroke-opacity="0.3" stroke-width="2"/>
  <path d="M200 480L500 100" stroke="#0D6EFD" stroke-opacity="0.3" stroke-width="2"/>
  <path d="M200 480L600 480" stroke="#0D6EFD" stroke-opacity="0.3" stroke-width="2"/>
</svg>